<svg width="88" height="88" viewBox="0 0 88 88" fill="none" xmlns="http://www.w3.org/2000/svg">
<defs>
<linearGradient id="paint0_linear" x1="1.59955e-06" y1="0.0858998" x2="81.8072" y2="93.3464" gradientUnits="userSpaceOnUse">
<stop stop-color="#00D5F2"/>
<stop offset="1" stop-color="#0061F2"/>
</linearGradient>
</defs>
<g clip-path="url(#clip0)">
<path d="M14.2445 53.4741C14.8318 53.8672 15.4959 54.055 16.153 54.055C17.2616 54.055 18.3501 53.5195 19.013 52.5289C24.5675 44.2288 33.8527 39.2734 43.8508 39.2734C53.8194 39.2734 63.0893 44.2061 68.6477 52.4683C69.7077 54.0435 71.8436 54.4613 73.4186 53.4016C74.9939 52.3418 75.4117 50.2057 74.3519 48.6307C69.9108 42.0296 63.5436 37.1589 56.2674 34.5532C60.631 30.9887 63.4219 25.5683 63.4219 19.5078C63.4219 8.79845 54.7094 0.0859375 44 0.0859375C33.2906 0.0859375 24.5781 8.79845 24.5781 19.5078C24.5781 25.5248 27.3285 30.9112 31.6381 34.4766C24.2481 37.0726 17.7851 42.0023 13.2993 48.7054C12.2435 50.2832 12.6667 52.4183 14.2445 53.4741ZM44 6.96094C50.9183 6.96094 56.5469 12.5895 56.5469 19.5078C56.5469 26.4261 50.9183 32.0547 44 32.0547C37.0817 32.0547 31.4531 26.4261 31.4531 19.5078C31.4531 12.5895 37.0817 6.96094 44 6.96094ZM57.7084 60.952L52.5838 64.6489C51.8213 65.1989 51.5022 66.1739 51.7935 67.0639L53.8572 73.0455C53.9443 73.3119 53.9779 73.5721 53.9667 73.8203C53.8936 75.4268 51.8801 76.5258 50.4034 75.4605L45.2789 71.7626C44.8977 71.4876 44.4489 71.3501 44.0002 71.3501C43.5514 71.3501 43.1026 71.4876 42.7214 71.7626L37.597 75.4605C36.1202 76.5258 34.0971 75.4268 34.0331 73.8203C34.0233 73.5721 34.0577 73.3117 34.1449 73.0455L36.2067 67.0639C36.498 66.1739 36.1788 65.1989 35.4164 64.6489L30.2918 60.952C28.5868 59.7221 29.463 56.8047 31.5705 56.8047H37.9048C38.8474 56.8047 39.6827 56.4419 39.9738 55.5519L41.9311 49.5316C42.2568 48.5366 43.1284 48.0391 44.0002 48.0391C44.8719 48.0391 45.7435 48.5366 46.0692 49.5316L48.0265 55.5519C48.3178 56.4419 49.153 56.8047 50.0955 56.8047H56.4298C58.5372 56.8047 59.4134 59.7221 57.7084 60.952ZM87.099 72.9833L81.9744 76.6801C81.212 77.2301 80.8928 78.2052 81.1841 79.0952L83.2478 85.0768C83.335 85.3432 83.3685 85.6034 83.3573 85.8516C83.2843 87.4581 81.2708 88.557 79.794 87.4918L74.6695 83.7939C74.2883 83.5189 73.8396 83.3814 73.3908 83.3814C72.942 83.3814 72.4933 83.5189 72.112 83.7939L66.9876 87.4918C65.5108 88.557 63.4877 87.4581 63.4238 85.8516C63.414 85.6034 63.4483 85.343 63.5355 85.0768L65.5973 79.0952C65.8886 78.2052 65.5695 77.2301 64.807 76.6801L59.6824 72.9833C57.9774 71.7533 58.8536 68.8359 60.9611 68.8359H67.2954C68.238 68.8359 69.0733 68.4731 69.3645 67.5831L71.3218 61.5629C71.6475 60.5679 72.5191 60.0703 73.3908 60.0703C74.2626 60.0703 75.1341 60.5679 75.4598 61.5629L77.4171 67.5831C77.7085 68.4731 78.5436 68.8359 79.4862 68.8359H85.8204C87.9278 68.8359 88.804 71.7533 87.099 72.9833ZM28.3178 72.9833L23.1932 76.6801C22.4307 77.2301 22.1115 78.2052 22.4029 79.0952L24.4666 85.0768C24.5537 85.3432 24.5872 85.6034 24.5761 85.8516C24.503 87.4581 22.4895 88.557 21.0127 87.4918L15.8881 83.7939C15.5069 83.5189 15.0581 83.3814 14.6094 83.3814C14.1606 83.3814 13.7118 83.5189 13.3306 83.7939L8.20617 87.4918C6.72942 88.557 4.70628 87.4581 4.64234 85.8516C4.63255 85.6034 4.66692 85.343 4.75406 85.0768L6.81587 79.0952C7.1072 78.2052 6.78803 77.2301 6.02559 76.6801L0.900969 72.9833C-0.804031 71.7533 0.0721873 68.8359 2.17972 68.8359H8.514C9.45656 68.8359 10.2919 68.4731 10.583 67.5831L12.5403 61.5629C12.866 60.5679 13.7376 60.0703 14.6094 60.0703C15.4811 60.0703 16.3527 60.5679 16.6784 61.5629L18.6357 67.5831C18.927 68.4731 19.7622 68.8359 20.7048 68.8359H27.039C29.1466 68.8359 30.0228 71.7533 28.3178 72.9833Z" fill="url(#paint0_linear)"/>
</g>
<clipPath id="clip0">
<path d="M0 0H88V88H0V0Z" fill="white"/>
</clipPath>
</svg>
