<svg width="88" height="88" viewBox="0 0 88 88" fill="none" xmlns="http://www.w3.org/2000/svg">
<path d="M43.3125 48.2109C45.211 48.2109 46.75 46.6719 46.75 44.7734C46.75 42.875 45.211 41.3359 43.3125 41.3359C41.414 41.3359 39.875 42.875 39.875 44.7734C39.875 46.6719 41.414 48.2109 43.3125 48.2109Z" fill="url(#paint0_linear)"/>
<path d="M30.4219 48.2109C32.3204 48.2109 33.8594 46.6719 33.8594 44.7734C33.8594 42.875 32.3204 41.3359 30.4219 41.3359C28.5234 41.3359 26.9844 42.875 26.9844 44.7734C26.9844 46.6719 28.5234 48.2109 30.4219 48.2109Z" fill="url(#paint1_linear)"/>
<path d="M43.3125 74.3359C45.211 74.3359 46.75 72.7969 46.75 70.8984C46.75 69 45.211 67.4609 43.3125 67.4609C41.414 67.4609 39.875 69 39.875 70.8984C39.875 72.7969 41.414 74.3359 43.3125 74.3359Z" fill="url(#paint2_linear)"/>
<path d="M43.3125 61.2734C45.211 61.2734 46.75 59.7344 46.75 57.8359C46.75 55.9375 45.211 54.3984 43.3125 54.3984C41.414 54.3984 39.875 55.9375 39.875 57.8359C39.875 59.7344 41.414 61.2734 43.3125 61.2734Z" fill="url(#paint3_linear)"/>
<path d="M30.4219 61.2734C32.3204 61.2734 33.8594 59.7344 33.8594 57.8359C33.8594 55.9375 32.3204 54.3984 30.4219 54.3984C28.5234 54.3984 26.9844 55.9375 26.9844 57.8359C26.9844 59.7344 28.5234 61.2734 30.4219 61.2734Z" fill="url(#paint4_linear)"/>
<path d="M84.5625 49.9297C86.461 49.9297 88 48.3907 88 46.4922V31.0234C88 23.4417 81.8317 17.2734 74.25 17.2734H60.2767C59.0066 12.0801 54.7802 8.03653 49.4883 7.03295C49.7142 6.98603 49.9481 6.96094 50.1877 6.96094C52.086 6.96077 53.625 5.4218 53.6248 3.52327C53.6248 1.62491 52.0859 0.0859375 50.1875 0.0859375H23.5472C19.1307 0.0862813 15.3553 2.87822 13.889 6.78906H13.75C6.16825 6.78906 0 12.9573 0 20.5391V74.1641C0 81.7458 6.16825 87.9141 13.75 87.9141H46.9219C53.3784 87.9141 58.8069 83.4398 60.2767 77.4297H74.25C81.8317 77.4297 88 71.2614 88 63.6797C88 61.7812 86.461 60.2422 84.5625 60.2422C82.664 60.2422 81.125 61.7812 81.125 63.6797C81.125 67.4706 78.0409 70.5547 74.25 70.5547H60.6719V24.1484H74.25C78.0409 24.1484 81.125 27.2326 81.125 31.0234V46.4922C81.125 48.3907 82.664 49.9297 84.5625 49.9297ZM20.1108 10.3984C20.1108 8.50317 21.6526 6.96111 23.5476 6.96094H40.4649C40.0833 8.03688 39.8757 9.19377 39.8757 10.3988L39.876 15.5547H20.1104L20.1108 10.3984ZM53.7969 28.4453H17.1875C15.289 28.4453 13.75 29.9843 13.75 31.8828C13.75 33.7813 15.289 35.3203 17.1875 35.3203H53.7969V74.1641C53.7969 77.9549 50.7127 81.0391 46.9219 81.0391H13.75C9.95913 81.0391 6.875 77.9549 6.875 74.1641V20.5391C6.875 16.9214 9.6843 13.9497 13.2354 13.6854L13.2351 18.9918C13.2351 19.9036 13.597 20.7781 14.2417 21.4228C14.8864 22.0675 15.7608 22.4297 16.6726 22.4297H43.3139C44.2257 22.4297 45.1 22.0675 45.7447 21.4228C46.3894 20.7781 46.7514 19.9036 46.7514 18.9918L46.7509 13.6641H46.9219C50.7127 13.6641 53.7969 16.7482 53.7969 20.5391V28.4453Z" fill="url(#paint5_linear)"/>
<path d="M17.3594 74.3359C19.2579 74.3359 20.7969 72.7969 20.7969 70.8984C20.7969 69 19.2579 67.4609 17.3594 67.4609C15.4609 67.4609 13.9219 69 13.9219 70.8984C13.9219 72.7969 15.4609 74.3359 17.3594 74.3359Z" fill="url(#paint6_linear)"/>
<path d="M30.4219 74.3359C32.3204 74.3359 33.8594 72.7969 33.8594 70.8984C33.8594 69 32.3204 67.4609 30.4219 67.4609C28.5234 67.4609 26.9844 69 26.9844 70.8984C26.9844 72.7969 28.5234 74.3359 30.4219 74.3359Z" fill="url(#paint7_linear)"/>
<path d="M69.0938 34.4609V51.6484C69.0938 53.547 70.6327 55.0859 72.5312 55.0859C74.4298 55.0859 75.9688 53.547 75.9688 51.6484V34.4609C75.9688 32.5624 74.4298 31.0234 72.5312 31.0234C70.6327 31.0234 69.0938 32.5624 69.0938 34.4609Z" fill="url(#paint8_linear)"/>
<path d="M17.3594 61.2734C19.2579 61.2734 20.7969 59.7344 20.7969 57.8359C20.7969 55.9375 19.2579 54.3984 17.3594 54.3984C15.4609 54.3984 13.9219 55.9375 13.9219 57.8359C13.9219 59.7344 15.4609 61.2734 17.3594 61.2734Z" fill="url(#paint9_linear)"/>
<path d="M17.3594 48.2109C19.2579 48.2109 20.7969 46.6719 20.7969 44.7734C20.7969 42.875 19.2579 41.3359 17.3594 41.3359C15.4609 41.3359 13.9219 42.875 13.9219 44.7734C13.9219 46.6719 15.4609 48.2109 17.3594 48.2109Z" fill="url(#paint10_linear)"/>
<defs>
<linearGradient id="paint0_linear" x1="1.59955e-06" y1="0.0858998" x2="81.8072" y2="93.3464" gradientUnits="userSpaceOnUse">
<stop stop-color="#00D5F2"/>
<stop offset="1" stop-color="#0061F2"/>
</linearGradient>
<linearGradient id="paint1_linear" x1="1.59955e-06" y1="0.0858998" x2="81.8072" y2="93.3464" gradientUnits="userSpaceOnUse">
<stop stop-color="#00D5F2"/>
<stop offset="1" stop-color="#0061F2"/>
</linearGradient>
<linearGradient id="paint2_linear" x1="1.59955e-06" y1="0.0858998" x2="81.8072" y2="93.3464" gradientUnits="userSpaceOnUse">
<stop stop-color="#00D5F2"/>
<stop offset="1" stop-color="#0061F2"/>
</linearGradient>
<linearGradient id="paint3_linear" x1="1.59955e-06" y1="0.0858998" x2="81.8072" y2="93.3464" gradientUnits="userSpaceOnUse">
<stop stop-color="#00D5F2"/>
<stop offset="1" stop-color="#0061F2"/>
</linearGradient>
<linearGradient id="paint4_linear" x1="1.59955e-06" y1="0.0858998" x2="81.8072" y2="93.3464" gradientUnits="userSpaceOnUse">
<stop stop-color="#00D5F2"/>
<stop offset="1" stop-color="#0061F2"/>
</linearGradient>
<linearGradient id="paint5_linear" x1="1.59955e-06" y1="0.0858998" x2="81.8072" y2="93.3464" gradientUnits="userSpaceOnUse">
<stop stop-color="#00D5F2"/>
<stop offset="1" stop-color="#0061F2"/>
</linearGradient>
<linearGradient id="paint6_linear" x1="1.59955e-06" y1="0.0858998" x2="81.8072" y2="93.3464" gradientUnits="userSpaceOnUse">
<stop stop-color="#00D5F2"/>
<stop offset="1" stop-color="#0061F2"/>
</linearGradient>
<linearGradient id="paint7_linear" x1="1.59955e-06" y1="0.0858998" x2="81.8072" y2="93.3464" gradientUnits="userSpaceOnUse">
<stop stop-color="#00D5F2"/>
<stop offset="1" stop-color="#0061F2"/>
</linearGradient>
<linearGradient id="paint8_linear" x1="1.59955e-06" y1="0.0858998" x2="81.8072" y2="93.3464" gradientUnits="userSpaceOnUse">
<stop stop-color="#00D5F2"/>
<stop offset="1" stop-color="#0061F2"/>
</linearGradient>
<linearGradient id="paint9_linear" x1="1.59955e-06" y1="0.0858998" x2="81.8072" y2="93.3464" gradientUnits="userSpaceOnUse">
<stop stop-color="#00D5F2"/>
<stop offset="1" stop-color="#0061F2"/>
</linearGradient>
<linearGradient id="paint10_linear" x1="1.59955e-06" y1="0.0858998" x2="81.8072" y2="93.3464" gradientUnits="userSpaceOnUse">
<stop stop-color="#00D5F2"/>
<stop offset="1" stop-color="#0061F2"/>
</linearGradient>
</defs>
</svg>
