<svg width="88" height="88" viewBox="0 0 88 88" fill="none" xmlns="http://www.w3.org/2000/svg">
<g clip-path="url(#clip0)">
<path d="M86.572 71.4778L83.264 69.0944C83.2708 68.9219 83.2741 68.75 83.2741 68.5781C83.2741 68.3693 83.2674 68.1605 83.258 67.9517C83.2546 67.8846 83.2506 67.8174 83.2466 67.751C83.2426 67.6852 83.2405 67.6187 83.2358 67.5529L86.6485 64.9466C88.0718 63.8596 88.4223 61.8622 87.4542 60.3557L85.5776 57.4378C84.6921 56.0601 82.9565 55.4988 81.4312 56.0964L77.7311 57.5479C77.3907 57.2941 77.0369 57.0598 76.675 56.8389C76.6636 56.8315 76.6522 56.8242 76.6408 56.8168C76.483 56.7214 76.3232 56.6308 76.1628 56.5422C76.1165 56.5167 76.0708 56.4905 76.0251 56.4656C75.8821 56.3884 75.7371 56.3152 75.5921 56.2434C75.5229 56.2092 75.4538 56.1756 75.384 56.1427C75.3175 56.1111 75.2524 56.0762 75.1846 56.046L74.4541 51.9848C74.1594 50.3473 72.7347 49.1562 71.071 49.1562H67.8054C66.0906 49.1562 64.6384 50.4191 64.4008 52.1171L63.8502 56.0494C62.8579 56.4985 61.9227 57.0652 61.0633 57.7372L57.1102 56.3878C55.5109 55.8412 53.7519 56.5388 52.961 58.032L51.2745 61.2184C50.4467 62.7814 50.9401 64.717 52.4152 65.6932L55.7896 67.9269C55.7788 68.1437 55.7734 68.3613 55.7734 68.5781C55.7734 68.7883 55.7802 68.9977 55.7896 69.2072C55.7929 69.2791 55.7976 69.3502 55.8023 69.4221C55.8063 69.4939 55.809 69.5657 55.8144 69.6376L52.5212 72.2466C51.2047 73.2899 50.8347 75.1322 51.6471 76.6025L53.2584 79.5211C54.0943 81.035 55.9258 81.6923 57.5338 81.0552L61.2701 79.5748C61.7891 79.9648 62.3376 80.3133 62.9049 80.6255C62.9391 80.645 62.9727 80.6644 63.007 80.6826C63.1573 80.7638 63.3098 80.841 63.4628 80.9162C63.5266 80.9478 63.5904 80.9793 63.6542 81.0095C63.724 81.0424 63.7925 81.0787 63.8623 81.1102L64.5934 85.1714C64.8882 86.809 66.3129 88 67.9766 88H71.0703C72.7595 88 74.1976 86.7734 74.4648 85.1057L75.0973 81.1512C76.2474 80.6423 77.3196 79.9769 78.2897 79.1713L82.1972 80.3274C83.7917 80.7987 85.4964 80.0615 86.2437 78.5751L87.6328 75.811C88.3921 74.3017 87.9423 72.4655 86.572 71.4778ZM67.3931 75.1134C67.3367 75.0946 67.281 75.0758 67.2253 75.0563C67.1414 75.0268 67.0594 74.9946 66.9769 74.9617C66.8903 74.9268 66.8043 74.8905 66.7191 74.8522C66.6465 74.82 66.5747 74.7871 66.5042 74.7522C66.4391 74.7206 66.3746 74.6871 66.3109 74.6535C66.2524 74.6219 66.194 74.5897 66.1363 74.5568C66.045 74.5045 65.955 74.4507 65.8664 74.395C65.7972 74.3514 65.7274 74.3071 65.6596 74.2607C65.6012 74.2205 65.5441 74.1795 65.4871 74.1379C65.4286 74.0949 65.3709 74.0513 65.3138 74.007C65.2628 73.9673 65.2111 73.9277 65.1608 73.8868C65.0661 73.8089 64.9734 73.7277 64.8828 73.6451C64.8398 73.6055 64.7982 73.5645 64.7559 73.5242C64.6921 73.4625 64.6304 73.4 64.5686 73.3362C63.7347 72.4681 63.1265 71.3825 62.8378 70.1733C62.8149 70.078 62.7941 69.9827 62.7753 69.886C62.7679 69.847 62.7612 69.8074 62.7538 69.7678C62.7377 69.6752 62.7236 69.5832 62.7115 69.4905C62.7062 69.4503 62.7001 69.41 62.6961 69.3697C62.6847 69.2737 62.676 69.1777 62.6693 69.081C62.6666 69.0447 62.6632 69.0092 62.6612 68.9729C62.6531 68.8413 62.6484 68.7097 62.6484 68.5781C62.6484 68.4512 62.6525 68.3243 62.6599 68.1968C62.6605 68.1813 62.6625 68.1659 62.6632 68.1498C62.6706 68.0356 62.68 67.9208 62.6927 67.8067C62.6941 67.7966 62.6954 67.7872 62.6968 67.7778C62.7109 67.657 62.7283 67.5361 62.7485 67.416C62.7498 67.4092 62.7512 67.4032 62.7518 67.3972C62.7726 67.277 62.7975 67.1568 62.825 67.0366C63.1124 65.7872 63.7401 64.6666 64.6069 63.7791C64.6324 63.7529 64.6579 63.726 64.6834 63.7005C64.7512 63.6334 64.8204 63.5669 64.8909 63.5024C64.909 63.4863 64.9265 63.4709 64.9446 63.4548C65.0862 63.3286 65.2326 63.2077 65.3837 63.0929C65.3978 63.0828 65.4112 63.0721 65.4246 63.062C65.5092 62.9989 65.5945 62.9378 65.6818 62.8787C65.6824 62.8781 65.6838 62.8774 65.6844 62.8767C65.853 62.7632 66.0275 62.6572 66.2061 62.5585C66.2276 62.5464 66.2491 62.5343 66.2706 62.5229C66.3565 62.4766 66.4431 62.4323 66.5311 62.3893C66.5606 62.3745 66.5908 62.3618 66.6204 62.3477C66.7587 62.2832 66.8997 62.2234 67.0427 62.1677C67.1024 62.1449 67.1615 62.1214 67.2219 62.1006C67.2897 62.0757 67.3589 62.0522 67.428 62.0301C67.524 61.9999 67.6201 61.9717 67.7181 61.9448C68.2935 61.7877 68.8984 61.7025 69.5234 61.7025C70.1619 61.7025 70.7796 61.7917 71.3664 61.9556C71.4624 61.9824 71.5577 62.0106 71.6517 62.0415C71.7075 62.0596 71.7625 62.0784 71.8176 62.0979C71.9008 62.1274 71.9834 62.159 72.066 62.1919C72.1425 62.2228 72.2177 62.2543 72.2929 62.2872C72.3762 62.3242 72.4594 62.3618 72.542 62.4027C72.6011 62.4316 72.6602 62.4618 72.7186 62.4927C72.785 62.5283 72.8515 62.5645 72.9166 62.6021C72.971 62.633 73.0254 62.6625 73.0784 62.6954C73.1832 62.7585 73.2852 62.825 73.3866 62.8942C73.4349 62.9264 73.4819 62.9613 73.5289 62.9949C73.5988 63.0452 73.6679 63.0969 73.7364 63.15C73.7787 63.1835 73.8217 63.2158 73.8633 63.25C73.964 63.3326 74.0634 63.4172 74.1594 63.5058C74.1896 63.5333 74.2184 63.5615 74.248 63.5897C74.3239 63.6622 74.399 63.7361 74.4722 63.8126C75.3108 64.6827 75.9224 65.7737 76.2111 66.9883C76.2326 67.0789 76.2534 67.1702 76.2709 67.2622C76.2789 67.3052 76.2863 67.3481 76.2937 67.3911C76.3091 67.4797 76.3232 67.569 76.3353 67.659C76.3414 67.7013 76.3467 67.7436 76.3514 67.7866C76.3629 67.8812 76.3709 67.9752 76.3776 68.0699C76.3803 68.1075 76.3843 68.1451 76.3864 68.1827C76.3937 68.3143 76.3984 68.4459 76.3984 68.5775C76.3984 68.8151 76.3864 69.0535 76.3622 69.2898C76.3608 69.2999 76.3588 69.3099 76.3582 69.32C76.3467 69.4261 76.3333 69.5322 76.3165 69.6376C76.3105 69.6772 76.3024 69.7155 76.2957 69.7551C76.283 69.8289 76.2709 69.9034 76.2554 69.9766C76.0097 71.1596 75.4585 72.2311 74.6891 73.1073C74.5897 73.2201 74.4883 73.3309 74.3823 73.437C74.3594 73.4604 74.3346 73.4826 74.3111 73.5054C74.2285 73.586 74.1432 73.6632 74.0573 73.7397C74.0117 73.78 73.966 73.8203 73.919 73.8593C73.8237 73.9391 73.7263 74.0164 73.627 74.0909C73.5652 74.1365 73.5021 74.1802 73.439 74.2245C73.3839 74.2628 73.3289 74.2997 73.2731 74.3359C73.1711 74.4024 73.067 74.4669 72.9609 74.528C72.8972 74.5649 72.8334 74.6018 72.7689 74.6367C72.6998 74.6736 72.6299 74.7092 72.5594 74.7441C72.4843 74.7811 72.4077 74.8167 72.3312 74.8509C72.2506 74.8871 72.1694 74.9221 72.0875 74.955C71.9881 74.9946 71.8881 75.0328 71.7874 75.0677C71.7383 75.0852 71.6893 75.102 71.6396 75.1181C71.4993 75.1638 71.3577 75.2061 71.2133 75.2423C70.6722 75.3793 70.1062 75.4525 69.5234 75.4525C68.8849 75.4525 68.2673 75.3632 67.6798 75.2C67.5838 75.1732 67.4885 75.1443 67.3931 75.1134ZM47.4375 84.5625C47.4375 86.4605 45.8987 88 44 88C32.2474 88 21.1977 83.4232 12.8873 75.1127C4.57684 66.8016 0 55.7526 0 44C0 32.2474 4.57684 21.1977 12.8873 12.8873C21.1977 4.57684 32.2474 0 44 0C55.7526 0 66.8016 4.57684 75.1127 12.8873C83.4232 21.1977 87.9993 32.2474 87.9993 44C87.9993 44.6821 87.9832 45.3723 87.9517 46.0518C87.863 47.9478 86.2551 49.4147 84.3571 49.3241C82.4604 49.2355 80.9954 47.6262 81.084 45.7295C81.1109 45.1568 81.1243 44.5747 81.1243 44C81.1243 23.5294 64.4706 6.875 43.9993 6.875C23.5287 6.875 6.875 23.5294 6.875 44C6.875 64.4706 23.5287 81.125 43.9993 81.125C45.8987 81.125 47.4375 82.6638 47.4375 84.5625ZM47.4375 16.5V44C47.4375 44.9117 47.075 45.7859 46.4304 46.4304L32.8187 60.0421C32.1473 60.7135 31.2678 61.0492 30.3883 61.0492C29.5081 61.0492 28.6286 60.7135 27.9572 60.0421C26.6151 58.7 26.6151 56.5234 27.9572 55.1813L40.5625 42.576V16.5C40.5625 14.6013 42.1013 13.0625 44 13.0625C45.8987 13.0625 47.4375 14.6013 47.4375 16.5Z" fill="url(#paint0_linear)"/>
</g>
<defs>
<linearGradient id="paint0_linear" x1="1.59955e-06" y1="-3.78215e-05" x2="81.988" y2="93.2841" gradientUnits="userSpaceOnUse">
<stop stop-color="#00D5F2"/>
<stop offset="1" stop-color="#0061F2"/>
</linearGradient>
<clipPath id="clip0">
<path d="M0 0H88V88H0V0Z" fill="white"/>
</clipPath>
</defs>
</svg>
