<svg width="88" height="88" viewBox="0 0 88 88" fill="none" xmlns="http://www.w3.org/2000/svg">
<path d="M49.8666 5.13339H1.46661C0.656734 5.13339 0 5.75249 0 6.5163V52.1505C0 52.9143 0.656734 53.5334 1.46661 53.5334L26.4 56.4666L49.8666 53.5332C50.6767 53.5332 51.3332 52.9141 51.3332 52.1503V6.5163C51.3334 5.75249 50.6767 5.13339 49.8666 5.13339Z" fill="#FDDD85"/>
<path d="M80.6666 53.5334H73.3332V37.4C73.3332 33.3565 70.0435 30.0666 65.9998 30.0666H52.7998C51.9898 30.0666 51.3332 30.7234 51.3332 31.5332V53.5332H1.46661C0.656734 53.5334 0 54.19 0 55V75.5334C0 76.3433 0.656734 77 1.46661 77H49.8666H71.8666H86.5332C87.3433 77 87.9998 76.3433 87.9998 75.5334V60.8668C88 56.8231 84.7103 53.5334 80.6666 53.5334Z" fill="#E5563C"/>
<path d="M71.8667 82.8666C77.5368 82.8666 82.1333 78.2701 82.1333 72.6C82.1333 66.9299 77.5368 62.3334 71.8667 62.3334C66.1966 62.3334 61.6001 66.9299 61.6001 72.6C61.6001 78.2701 66.1966 82.8666 71.8667 82.8666Z" fill="#74757B"/>
<path d="M71.8666 78.4666C75.1066 78.4666 77.7332 75.84 77.7332 72.6C77.7332 69.36 75.1066 66.7334 71.8666 66.7334C68.6266 66.7334 66 69.36 66 72.6C66 75.84 68.6266 78.4666 71.8666 78.4666Z" fill="#AFB0B4"/>
<path d="M71.8663 77C74.2964 77 76.2663 75.0301 76.2663 72.6C76.2663 70.17 74.2964 68.2 71.8663 68.2C69.4363 68.2 67.4663 70.17 67.4663 72.6C67.4663 75.0301 69.4363 77 71.8663 77Z" fill="#D7D8D9"/>
<path d="M16.1333 82.8666C21.8034 82.8666 26.3999 78.2701 26.3999 72.6C26.3999 66.9299 21.8034 62.3334 16.1333 62.3334C10.4632 62.3334 5.8667 66.9299 5.8667 72.6C5.8667 78.2701 10.4632 82.8666 16.1333 82.8666Z" fill="#74757B"/>
<path d="M16.1337 78.4666C19.3737 78.4666 22.0003 75.84 22.0003 72.6C22.0003 69.36 19.3737 66.7334 16.1337 66.7334C12.8937 66.7334 10.2671 69.36 10.2671 72.6C10.2671 75.84 12.8937 78.4666 16.1337 78.4666Z" fill="#AFB0B4"/>
<path d="M16.1334 77C18.5635 77 20.5334 75.0301 20.5334 72.6C20.5334 70.17 18.5635 68.2 16.1334 68.2C13.7033 68.2 11.7334 70.17 11.7334 72.6C11.7334 75.0301 13.7033 77 16.1334 77Z" fill="#D7D8D9"/>
<path d="M57.1998 60.8666H54.2664C53.4564 60.8666 52.7998 60.2099 52.7998 59.4C52.7998 58.5899 53.4565 57.9334 54.2664 57.9334H57.1998C58.0098 57.9334 58.6664 58.5901 58.6664 59.4C58.6664 60.21 58.0098 60.8666 57.1998 60.8666Z" fill="#B83C26"/>
<path d="M66.0003 33H55.7337C54.9237 33 54.2671 33.6567 54.2671 34.4666V49.1332C54.2671 49.9433 54.9238 50.5998 55.7337 50.5998H68.9337C69.7437 50.5998 70.4003 49.9431 70.4003 49.1332V37.4C70.4003 34.9738 68.4263 33 66.0003 33Z" fill="#D7D8D9"/>
<path d="M55.7342 33C54.9241 33 54.2676 33.6567 54.2676 34.4666V41.9222L63.1898 33H55.7342Z" fill="#88898E"/>
<path d="M66.6803 33.0529L54.2666 45.4666V49.1332C54.2666 49.9433 54.9233 50.5998 55.7332 50.5998H57.0776L70.3967 37.2807C70.3395 35.1395 68.746 33.375 66.6803 33.0529Z" fill="#88898E"/>
<path d="M64.0444 50.6H68.9334C69.7435 50.6 70.4 49.9433 70.4 49.1334V44.2444L64.0444 50.6Z" fill="#88898E"/>
<path d="M2.93339 52.1505V6.5163C2.93339 5.75249 3.59013 5.13339 4.4 5.13339H1.46661C0.656734 5.13339 0 5.75249 0 6.5163V52.1505C0 52.9143 0.656734 53.5334 1.46661 53.5334H4.4C3.58995 53.5334 2.93339 52.9143 2.93339 52.1505Z" fill="#FDD042"/>
<path d="M35.2001 5.13339H17.6001V25.6226C17.6001 26.7525 18.8269 27.5211 19.8214 26.9244L26.4001 22.9773L32.9788 26.9244C33.9717 27.5201 35.2001 26.7554 35.2001 25.6274V5.13339Z" fill="#F2C127"/>
<path d="M20.5335 25.6224V5.13339H17.6001V25.6226C17.6001 26.7525 18.8269 27.5211 19.8214 26.9244L20.7354 26.3761C20.6084 26.1565 20.5335 25.9005 20.5335 25.6224Z" fill="#E1A527"/>
<path d="M7.33331 52.0666C6.52326 52.0666 5.8667 51.4099 5.8667 50.6V46.2C5.8667 45.39 6.52343 44.7334 7.33331 44.7334C8.14318 44.7334 8.79992 45.3901 8.79992 46.2V50.6C8.79992 51.4101 8.14318 52.0666 7.33331 52.0666Z" fill="#606268"/>
<path d="M11.7332 52.0666C10.9232 52.0666 10.2666 51.4099 10.2666 50.6V46.2C10.2666 45.39 10.9233 44.7334 11.7332 44.7334C12.5431 44.7334 13.1998 45.3901 13.1998 46.2V50.6C13.1998 51.4101 12.5431 52.0666 11.7332 52.0666Z" fill="#606268"/>
<path d="M39.5999 52.0666C38.7899 52.0666 38.1333 51.4099 38.1333 50.6V46.2C38.1333 45.39 38.79 44.7334 39.5999 44.7334C40.41 44.7334 41.0665 45.3901 41.0665 46.2V50.6C41.0665 51.4101 40.41 52.0666 39.5999 52.0666Z" fill="#606268"/>
<path d="M44.0003 52.0666C43.1903 52.0666 42.5337 51.4099 42.5337 50.6V46.2C42.5337 45.39 43.1904 44.7334 44.0003 44.7334C44.8104 44.7334 45.4669 45.3901 45.4669 46.2V50.6C45.4669 51.4101 44.8104 52.0666 44.0003 52.0666Z" fill="#606268"/>
<path d="M19.0662 52.0666C18.2562 52.0666 17.5996 51.4099 17.5996 50.6V46.2C17.5996 45.39 18.2563 44.7334 19.0662 44.7334C19.8761 44.7334 20.5328 45.3901 20.5328 46.2V50.6C20.533 51.4101 19.8763 52.0666 19.0662 52.0666Z" fill="#606268"/>
<path d="M23.4666 52.0666C22.6566 52.0666 22 51.4099 22 50.6V46.2C22 45.39 22.6567 44.7334 23.4666 44.7334C24.2765 44.7334 24.9332 45.3901 24.9332 46.2V50.6C24.9334 51.4101 24.2767 52.0666 23.4666 52.0666Z" fill="#606268"/>
<path d="M27.8665 52.0666C27.0565 52.0666 26.3999 51.4099 26.3999 50.6V46.2C26.3999 45.39 27.0566 44.7334 27.8665 44.7334C28.6766 44.7334 29.3331 45.3901 29.3331 46.2V50.6C29.3333 51.4101 28.6766 52.0666 27.8665 52.0666Z" fill="#606268"/>
<path d="M32.2664 52.0666C31.4564 52.0666 30.7998 51.4099 30.7998 50.6V46.2C30.7998 45.39 31.4565 44.7334 32.2664 44.7334C33.0765 44.7334 33.733 45.3901 33.733 46.2V50.6C33.7332 51.4101 33.0765 52.0666 32.2664 52.0666Z" fill="#606268"/>
<path d="M42.5332 30.0666H10.2664C9.45637 30.0666 8.7998 30.7234 8.7998 31.5332V37.4C8.7998 38.2101 9.45654 38.8666 10.2664 38.8666H42.533C43.3431 38.8666 43.9996 38.2099 43.9996 37.4V31.5334C43.9998 30.7234 43.3431 30.0666 42.5332 30.0666Z" fill="#EBEBEC"/>
<path d="M11.7332 37.4V31.5334C11.7332 30.7233 12.3899 30.0668 13.1998 30.0668H10.2664C9.45637 30.0668 8.7998 30.7235 8.7998 31.5334V37.4C8.7998 38.21 9.45654 38.8666 10.2664 38.8666H13.1998C12.3898 38.8666 11.7332 38.21 11.7332 37.4Z" fill="#D7D8D9"/>
</svg>
