<svg width="88" height="88" viewBox="0 0 88 88" fill="none" xmlns="http://www.w3.org/2000/svg">
<g clip-path="url(#clip0)">
<path d="M55.4538 81.2541C56.1418 83.0235 55.2652 85.0157 53.4957 85.7039C49.5225 87.2489 45.517 88 41.25 88C36.0269 88 30.9181 86.7702 26.0654 84.3447C21.5349 82.0805 17.4343 78.8846 13.8774 74.8461C6.80573 66.8168 2.75 56.3255 2.75 46.0625V19.0781C2.75 17.7236 3.54544 16.4955 4.78139 15.9414L39.672 0.300786C40.5625 -0.0984798 41.5809 -0.100199 42.4727 0.29563L77.7071 15.9363C78.9494 16.4876 79.75 17.7191 79.75 19.0781V46.0625C79.75 47.8424 79.5099 49.5275 79.2775 51.1571L79.2009 51.6971C78.9367 53.5771 77.1982 54.8879 75.3186 54.6229C73.4386 54.3587 72.1285 52.6207 72.3927 50.7406L72.4713 50.1868C72.6789 48.7305 72.875 47.355 72.875 46.0625V21.3132L41.085 7.2014L9.625 21.3043V46.0625C9.625 64.4131 24.6986 81.125 41.25 81.125C44.649 81.125 47.8397 80.5269 51.0041 79.2961C52.7732 78.6079 54.7657 79.4846 55.4538 81.2541ZM85.25 77.9431C85.25 80.6293 84.204 83.1549 82.3044 85.0544C80.405 86.9538 77.8795 88 75.1931 88C72.5111 88 69.9897 86.9574 68.0914 85.0639L50.5352 67.7763C48.1625 68.8114 45.4994 69.3483 43.5985 69.3516C43.5892 69.3516 43.5793 69.3516 43.5698 69.3516C38.1372 69.3517 33.2748 66.8128 29.8746 62.1999C27.0641 58.387 25.4571 53.2634 25.4653 48.1425C25.4686 46.1722 25.8299 44.1557 26.5696 41.9774C26.9519 40.8519 27.8883 40.0039 29.046 39.7346C30.2038 39.4651 31.4184 39.8133 32.2578 40.6548L40.6661 49.0811L45.0517 48.0865L46.0871 43.6258L37.806 35.1701C36.9786 34.3252 36.6436 33.1145 36.9189 31.9645C37.1943 30.8146 38.0413 29.8868 39.1615 29.5084C41.2409 28.8057 43.1387 28.4769 45.1342 28.4735C45.1469 28.4735 45.1605 28.4735 45.1734 28.4735C51.3415 28.4735 57.3973 30.849 61.3812 34.8329C64.635 38.0868 66.351 42.1579 66.3438 46.6065C66.3403 48.6872 65.6834 51.2729 64.6587 53.5102L82.2817 70.8094C82.2893 70.8168 82.2968 70.8244 82.3044 70.8318C84.204 72.7313 85.25 75.2569 85.25 77.9431ZM78.375 77.9431C78.375 77.0976 78.0474 76.3025 77.4524 75.7027L57.9633 56.5715C56.7497 55.3802 56.5895 53.4808 57.5865 52.1031C58.6609 50.6182 59.4665 47.9705 59.4688 46.5948C59.473 43.9768 58.4808 41.6549 56.5199 39.694C54.3457 37.5198 51.2029 36.0463 47.7928 35.5414L52.3179 40.1619C53.1393 41.0008 53.4758 42.2006 53.2104 43.3445L51.2617 51.7395C50.9639 53.0229 49.9586 54.0231 48.6736 54.3146L40.3349 56.2061C39.1823 56.4675 37.9761 56.1182 37.1412 55.2817L32.5062 50.6368C32.8842 53.4301 33.896 56.0684 35.4088 58.1207C36.8741 60.1087 39.4793 62.4767 43.5696 62.4767C43.5756 62.4767 43.581 62.4767 43.5872 62.4767C45.0646 62.4742 47.7029 61.7611 49.1265 60.7413C49.7286 60.3101 50.4297 60.0985 51.1271 60.0985C52.0044 60.0985 52.8763 60.4332 53.5401 61.0866L72.9245 80.1745C72.9309 80.1807 72.937 80.1869 72.9432 80.1931C73.5443 80.7942 74.3433 81.1252 75.1931 81.1252C76.0428 81.1252 76.842 80.7942 77.4429 80.1933C78.044 79.5921 78.375 78.793 78.375 77.9431Z" fill="url(#paint0_linear)"/>
</g>
<defs>
<linearGradient id="paint0_linear" x1="2.75" y1="4.14017e-06" x2="85.25" y2="88" gradientUnits="userSpaceOnUse">
<stop stop-color="#00D5F2"/>
<stop offset="1" stop-color="#0061F2"/>
</linearGradient>
<clipPath id="clip0">
<path d="M0 0H88V88H0V0Z" fill="white"/>
</clipPath>
</defs>
</svg>
