<svg width="88" height="88" viewBox="0 0 88 88" fill="none" xmlns="http://www.w3.org/2000/svg">
<path d="M9.72275 35.8035H78.2773C79.1004 35.8035 79.7677 36.4707 79.7677 37.2938V86.4743C79.7677 87.2974 79.1004 87.9646 78.2773 87.9646H9.72275C8.89964 87.9646 8.23242 87.2974 8.23242 86.4743V37.2938C8.23242 36.4705 8.89964 35.8035 9.72275 35.8035Z" fill="#FDD042"/>
<path d="M12.7034 86.4743V37.2938C12.7034 36.4707 13.3706 35.8035 14.1937 35.8035H9.72275C8.89964 35.8035 8.23242 36.4707 8.23242 37.2938V86.4743C8.23242 87.2974 8.89964 87.9646 9.72275 87.9646H14.1937C13.3705 87.9646 12.7034 87.2972 12.7034 86.4743Z" fill="#F2C127"/>
<path d="M61.8838 35.8035H78.2772C79.1003 35.8035 79.7676 36.4707 79.7676 37.2938V86.4743C79.7676 87.2974 79.1003 87.9646 78.2772 87.9646H61.8838V35.8035Z" fill="#FDDD85"/>
<path d="M52.9419 58.1582H1.49182C0.437364 58.1582 -0.28348 57.0935 0.108051 56.1145L7.85772 36.7404C8.08408 36.1745 8.63219 35.8035 9.24149 35.8035H61.8839L52.9419 58.1582Z" fill="#FDDD85"/>
<path d="M86.5078 58.1582H70.8253L61.8833 35.8035H78.7581C79.3674 35.8035 79.9156 36.1745 80.1419 36.7404L87.8916 56.1145C88.2833 57.0933 87.5623 58.1582 86.5078 58.1582Z" fill="#FDE5A2"/>
<path d="M75.2966 82.0033H66.3546C65.5315 82.0033 64.8643 81.3361 64.8643 80.5129V76.042C64.8643 75.2189 65.5315 74.5516 66.3546 74.5516H75.2966C76.1197 74.5516 76.7869 75.2189 76.7869 76.042V80.5129C76.7869 81.3359 76.1197 82.0033 75.2966 82.0033Z" fill="#88898E"/>
<path d="M54.4324 70.0806H15.6842C14.8611 70.0806 14.1938 69.4134 14.1938 68.5903V62.629C14.1938 61.8059 14.8611 61.1387 15.6842 61.1387H54.4324C55.2555 61.1387 55.9227 61.8059 55.9227 62.629V68.5903C55.9227 69.4134 55.2555 70.0806 54.4324 70.0806Z" fill="#E1A527"/>
<path d="M15.6842 82.0033C14.8611 82.0033 14.1938 81.3361 14.1938 80.5129V76.042C14.1938 75.2189 14.8611 74.5516 15.6842 74.5516C16.5073 74.5516 17.1745 75.2189 17.1745 76.042V80.5129C17.1745 81.3359 16.5071 82.0033 15.6842 82.0033Z" fill="#606268"/>
<path d="M20.1554 82.0033C19.3323 82.0033 18.665 81.3361 18.665 80.5129V76.042C18.665 75.2189 19.3323 74.5516 20.1554 74.5516C20.9785 74.5516 21.6457 75.2189 21.6457 76.042V80.5129C21.6457 81.3359 20.9783 82.0033 20.1554 82.0033Z" fill="#606268"/>
<path d="M27.6065 82.0033C26.7834 82.0033 26.1162 81.3361 26.1162 80.5129V76.042C26.1162 75.2189 26.7834 74.5516 27.6065 74.5516C28.4296 74.5516 29.0969 75.2189 29.0969 76.042V80.5129C29.0969 81.3359 28.4296 82.0033 27.6065 82.0033Z" fill="#606268"/>
<path d="M32.0777 82.0033C31.2546 82.0033 30.5874 81.3361 30.5874 80.5129V76.042C30.5874 75.2189 31.2546 74.5516 32.0777 74.5516C32.9008 74.5516 33.5681 75.2189 33.5681 76.042V80.5129C33.5681 81.3359 32.9008 82.0033 32.0777 82.0033Z" fill="#606268"/>
<path d="M36.5484 82.0033C35.7253 82.0033 35.0581 81.3361 35.0581 80.5129V76.042C35.0581 75.2189 35.7253 74.5516 36.5484 74.5516C37.3715 74.5516 38.0388 75.2189 38.0388 76.042V80.5129C38.0388 81.3359 37.3715 82.0033 36.5484 82.0033Z" fill="#606268"/>
<path d="M42.5099 82.0033C41.6868 82.0033 41.0195 81.3361 41.0195 80.5129V76.042C41.0195 75.2189 41.6868 74.5516 42.5099 74.5516C43.333 74.5516 44.0002 75.2189 44.0002 76.042V80.5129C44.0002 81.3359 43.3328 82.0033 42.5099 82.0033Z" fill="#606268"/>
<path d="M46.9811 82.0033C46.1579 82.0033 45.4907 81.3361 45.4907 80.5129V76.042C45.4907 75.2189 46.1579 74.5516 46.9811 74.5516C47.8042 74.5516 48.4714 75.2189 48.4714 76.042V80.5129C48.4714 81.3359 47.8042 82.0033 46.9811 82.0033Z" fill="#606268"/>
<path d="M54.4322 82.0033C53.6091 82.0033 52.9419 81.3361 52.9419 80.5129V76.042C52.9419 75.2189 53.6091 74.5516 54.4322 74.5516C55.2553 74.5516 55.9226 75.2189 55.9226 76.042V80.5129C55.9226 81.3359 55.2553 82.0033 54.4322 82.0033Z" fill="#606268"/>
<path d="M74.8601 66.0461L70.3891 61.5751C69.8071 60.9933 68.8635 60.9933 68.2815 61.5751L63.8106 66.0461C63.2365 66.6205 63.2362 67.5795 63.8106 68.1538C64.3846 68.7278 65.3439 68.7277 65.9181 68.1538L67.8448 66.2267V70.0803C67.8448 70.9034 68.512 71.5706 69.3351 71.5706C70.1582 71.5706 70.8255 70.9034 70.8255 70.0803V66.2267L72.7522 68.1538C73.3642 68.7655 74.3967 68.7165 74.9512 68.0534C75.4396 67.4699 75.3972 66.5835 74.8601 66.0461Z" fill="#606268"/>
<path d="M43.9999 32.8225C53.0537 32.8225 60.3933 25.4829 60.3933 16.4291C60.3933 7.37521 53.0537 0.035614 43.9999 0.035614C34.946 0.035614 27.6064 7.37521 27.6064 16.4291C27.6064 25.4829 34.946 32.8225 43.9999 32.8225Z" fill="#6AC8B7"/>
<path d="M46.9805 29.8422C37.9267 29.8422 30.5871 22.5026 30.5871 13.4487C30.5871 9.68157 31.8586 6.21193 33.9947 3.44354C30.1096 6.44121 27.6064 11.1427 27.6064 16.4294C27.6064 25.4832 34.946 32.8228 43.9999 32.8228C49.2866 32.8228 53.9881 30.3196 56.9857 26.4346C54.2173 28.5706 50.7477 29.8422 46.9805 29.8422Z" fill="#2DB59F"/>
<path d="M41.7645 23.1358C41.1924 23.1358 40.6204 22.9175 40.1838 22.4809L35.7128 18.01C34.8399 17.1368 34.8399 15.7216 35.7128 14.8485C36.5859 13.9755 38.0012 13.9755 38.8743 14.8485L41.7645 17.7387L49.1258 10.3775C49.9989 9.50454 51.4141 9.50454 52.2872 10.3775C53.1602 11.2506 53.1602 12.6658 52.2872 13.539L43.3453 22.4809C42.9087 22.9175 42.3367 23.1358 41.7645 23.1358Z" fill="white"/>
</svg>
