<svg width="88" height="88" viewBox="0 0 88 88" fill="none" xmlns="http://www.w3.org/2000/svg">
<g clip-path="url(#clip0)">
<path d="M43.8281 68.0625C28.0156 68.0625 20.6572 54.7939 20.3511 54.2292C19.4481 52.5595 20.0698 50.4735 21.7395 49.5698C23.4099 48.6668 25.4952 49.2885 26.3983 50.9583C26.4056 50.9717 27.8874 53.6216 30.8348 56.1984C34.6214 59.509 38.9928 61.1875 43.8281 61.1875C55.5888 61.1875 61.2023 51.0603 61.2573 50.9583C62.161 49.2885 64.247 48.6668 65.9167 49.5705C67.5865 50.4735 68.2082 52.5595 67.3045 54.2292C66.999 54.7939 59.6406 68.0625 43.8281 68.0625ZM66.7667 81.6588C68.3908 80.6752 68.9098 78.5616 67.9262 76.9376C66.9426 75.3141 64.8284 74.7952 63.205 75.7787C57.4311 79.276 50.7897 81.125 44 81.125C23.5294 81.125 6.875 64.4706 6.875 44C6.875 23.5294 23.5294 6.875 44 6.875C64.4706 6.875 81.125 23.5294 81.125 44C81.125 51.3201 78.9484 58.4449 74.8301 64.6049C73.7747 66.1833 74.199 68.3183 75.7767 69.373C77.3558 70.4285 79.4902 70.0042 80.5449 68.4257C85.4225 61.1318 88 52.6851 88 44C88 32.2474 83.4232 21.1977 75.1127 12.8873C66.8023 4.57684 55.7526 0 44 0C32.2474 0 21.1977 4.57684 12.8873 12.8873C4.57684 21.1977 0 32.2474 0 44C0 55.7526 4.57684 66.8023 12.8873 75.1127C21.1977 83.4232 32.2474 88 44 88C52.0459 88 59.9186 85.8073 66.7667 81.6588ZM67.8906 35.75C67.8906 31.0114 64.0355 27.1562 59.2969 27.1562C54.5582 27.1562 50.7031 31.0114 50.7031 35.75C50.7031 37.6487 52.2419 39.1875 54.1406 39.1875C56.0393 39.1875 57.5781 37.6487 57.5781 35.75C57.5781 34.802 58.3489 34.0312 59.2969 34.0312C60.2449 34.0312 61.0156 34.802 61.0156 35.75C61.0156 37.6487 62.5544 39.1875 64.4531 39.1875C66.3518 39.1875 67.8906 37.6487 67.8906 35.75ZM37.4688 35.75C37.4688 31.0114 33.6136 27.1562 28.875 27.1562C24.1364 27.1562 20.2812 31.0114 20.2812 35.75C20.2812 37.6487 21.8201 39.1875 23.7188 39.1875C25.6174 39.1875 27.1562 37.6487 27.1562 35.75C27.1562 34.802 27.927 34.0312 28.875 34.0312C29.823 34.0312 30.5938 34.802 30.5938 35.75C30.5938 37.6487 32.1326 39.1875 34.0312 39.1875C35.9299 39.1875 37.4688 37.6487 37.4688 35.75Z" fill="url(#paint0_linear)"/>
</g>
<defs>
<linearGradient id="paint0_linear" x1="1.59955e-06" y1="-3.78215e-05" x2="81.988" y2="93.284" gradientUnits="userSpaceOnUse">
<stop stop-color="#00D5F2"/>
<stop offset="1" stop-color="#0061F2"/>
</linearGradient>
<clipPath id="clip0">
<path d="M0 0H88V88H0V0Z" fill="white"/>
</clipPath>
</defs>
</svg>
