<svg width="16" height="16" viewBox="0 0 16 16" fill="none" xmlns="http://www.w3.org/2000/svg">
<path d="M6.66669 7.33329C6.66669 6.62605 6.94764 5.94777 7.44774 5.44767C7.94783 4.94758 8.62611 4.66663 9.33335 4.66663H11C11.7957 4.66663 12.5587 4.9827 13.1213 5.54531C13.6839 6.10792 14 6.87098 14 7.66663C14 8.46228 13.6839 9.22534 13.1213 9.78795C12.5587 10.3506 11.7957 10.6666 11 10.6666H10.6667" stroke="#A3A7B7" stroke-width="1.5" stroke-linecap="round" stroke-linejoin="round"/>
<path d="M9.33333 7.99996C9.33333 8.7072 9.05238 9.38548 8.55228 9.88558C8.05219 10.3857 7.37391 10.6666 6.66667 10.6666H5C4.20435 10.6666 3.44129 10.3506 2.87868 9.78795C2.31607 9.22534 2 8.46228 2 7.66663C2 6.87098 2.31607 6.10792 2.87868 5.54531C3.44129 4.9827 4.20435 4.66663 5 4.66663H5.33333" stroke="#A3A7B7" stroke-width="1.5" stroke-linecap="round" stroke-linejoin="round"/>
</svg>
