<svg width="88" height="88" viewBox="0 0 88 88" fill="none" xmlns="http://www.w3.org/2000/svg">
<g clip-path="url(#clip0)">
<path d="M40.2305 80.9758H10.3793C9.27019 80.9758 8.25957 80.4617 7.6061 79.5652C6.95246 78.6684 6.77251 77.5481 7.11213 76.4916C10.5036 65.9477 20.8463 58.5838 32.2636 58.5838C37.5761 58.5838 42.6777 60.1836 47.017 63.21C48.5713 64.294 50.7098 63.9129 51.7943 62.3587C52.8781 60.8044 52.4971 58.6657 50.9428 57.5816C48.7947 56.0833 46.4999 54.8611 44.0993 53.928C47.2932 51.024 49.4121 46.9576 49.7803 42.4041C54.6232 37.6865 60.9712 35.1015 67.7763 35.1015C73.0887 35.1015 78.1903 36.7013 82.5297 39.7277C84.0839 40.8117 86.2226 40.4307 87.3069 38.8764C88.3908 37.3221 88.0097 35.1835 86.4555 34.0993C84.3074 32.6011 82.0125 31.3789 79.6119 30.4458C83.1352 27.2424 85.3501 22.6244 85.3501 17.4988C85.3503 7.85005 77.5003 0 67.8514 0C58.2023 0 50.3524 7.85005 50.3524 17.4991C50.3524 22.604 52.5497 27.2054 56.0482 30.4073C55.5695 30.5915 55.0943 30.7875 54.6225 30.9951C52.4754 31.9399 50.4561 33.0997 48.579 34.464C45.9892 28.0333 39.6852 23.4824 32.3386 23.4824C22.6895 23.4824 14.8396 31.3325 14.8396 40.9815C14.8396 46.0714 17.0242 50.6608 20.5046 53.8615C11.1979 57.3492 3.65177 64.8392 0.579679 74.3909C-0.439196 77.5588 0.100491 80.9181 2.06055 83.6074C4.02027 86.2964 7.05215 87.8386 10.3795 87.8386H40.2307C42.1258 87.8386 43.6619 86.3024 43.6619 84.4075C43.6619 82.5125 42.1255 80.9758 40.2305 80.9758ZM67.8515 6.86228C73.7166 6.86228 78.4882 11.6339 78.4882 17.4989C78.4882 23.364 73.7166 28.1356 67.8515 28.1356C61.9865 28.1356 57.2149 23.364 57.2149 17.4989C57.2149 11.6339 61.9865 6.86228 67.8515 6.86228ZM32.3387 30.3445C38.2038 30.3445 42.9754 35.1161 42.9754 40.9812C42.9754 46.8463 38.2038 51.6178 32.3387 51.6178C26.4737 51.6178 21.7021 46.8463 21.7021 40.9812C21.7021 35.1161 26.4737 30.3445 32.3387 30.3445Z" fill="url(#paint0_linear)"/>
<path d="M86.49 56.0453C84.9491 54.9422 82.8057 55.297 81.7028 56.838L64.7903 80.4617C64.3284 80.9973 63.7496 81.113 63.4395 81.1336C63.1203 81.1554 62.5005 81.114 61.9691 80.6082L51.0202 70.0949C49.6531 68.7821 47.4807 68.8267 46.1688 70.1934C44.8562 71.5602 44.9004 73.7323 46.2671 75.0448L57.2271 85.5683C58.8685 87.1308 61.0595 88.0002 63.3139 88.0002C63.5076 88.0002 63.7018 87.9938 63.896 87.9808C66.3517 87.8171 68.6446 86.6229 70.1864 84.7045C70.2265 84.6548 70.2647 84.6041 70.302 84.5524L87.283 60.8326C88.3858 59.2917 88.031 57.1484 86.49 56.0453Z" fill="url(#paint1_linear)"/>
</g>
<defs>
<linearGradient id="paint0_linear" x1="0.0751969" y1="-3.78216e-05" x2="82.0813" y2="93.1445" gradientUnits="userSpaceOnUse">
<stop stop-color="#00D5F2"/>
<stop offset="1" stop-color="#0061F2"/>
</linearGradient>
<linearGradient id="paint1_linear" x1="0.0751969" y1="-3.78216e-05" x2="82.0813" y2="93.1445" gradientUnits="userSpaceOnUse">
<stop stop-color="#00D5F2"/>
<stop offset="1" stop-color="#0061F2"/>
</linearGradient>
<clipPath id="clip0">
<path d="M0 0H88V88H0V0Z" fill="white"/>
</clipPath>
</defs>
</svg>
