<svg width="88" height="88" viewBox="0 0 88 88" fill="none" xmlns="http://www.w3.org/2000/svg">
<path d="M64.8225 84.5054L60.2438 79.9267L47.6309 82.4493H24.9276L10.9823 68.504C9.56057 67.0823 9.58979 64.7587 11.0701 63.3739C12.4862 62.0495 14.7225 62.154 16.0935 63.525L24.9277 72.3592L41.3244 68.5754L46.3695 63.5303C51.9422 57.9576 60.9773 57.9576 66.55 63.5303L76.174 73.1543C77.1281 74.1084 77.1281 75.6554 76.174 76.6095L68.2777 84.5058C67.3236 85.4597 65.7768 85.4597 64.8225 84.5054Z" fill="#FDE5A2"/>
<path d="M27.8422 68.4265L41.277 68.5274V75.6625L27.7888 75.5611C25.8186 75.5461 24.2334 73.937 24.2481 71.9668C24.2629 69.9969 25.872 68.4117 27.8422 68.4265Z" fill="#FDE5A2"/>
<path d="M41.2764 72.7267V75.6625L27.7882 75.5611C26.0787 75.5482 24.6609 74.3344 24.3247 72.7267H41.2764Z" fill="#F2C127"/>
<path d="M10.9858 63.4621L26.189 78.6653H48.8921L61.7676 75.1537C62.3852 74.9855 63.0455 75.1606 63.4982 75.6133L70.3339 82.449L68.2777 84.5051C67.3237 85.4592 65.7766 85.4592 64.8225 84.5051L60.2438 79.9264L47.6309 82.449H24.9276L10.9822 68.5037C9.5893 67.111 9.59326 64.8555 10.9858 63.4621Z" fill="#FDD042"/>
<path d="M86.34 53.0647H1.65997C0.743187 53.0647 0 52.3214 0 51.4047V4.43887C0 3.52209 0.743359 2.7789 1.65997 2.7789H86.3399C87.2566 2.7789 87.9998 3.52226 87.9998 4.43887V51.4046C88 52.3215 87.2566 53.0647 86.34 53.0647Z" fill="#AFF0E8"/>
<path d="M6.28564 53.0647H1.65997C0.743187 53.0647 0 52.3214 0 51.4047V4.43887C0 3.52209 0.743359 2.7789 1.65997 2.7789H6.28564V53.0647Z" fill="#74DBC9"/>
<path d="M72.2855 9.0647H15.7142C15.7142 14.272 11.4929 18.4932 6.28564 18.4932V37.3503C11.4929 37.3503 15.7142 41.5716 15.7142 46.7789H72.2856C72.2856 41.5716 76.5069 37.3503 81.7142 37.3503V18.4932C76.5067 18.4932 72.2855 14.272 72.2855 9.0647ZM21.9998 32.636C19.3961 32.636 17.2855 30.5254 17.2855 27.9216C17.2855 25.3179 19.3961 23.2073 21.9998 23.2073C24.6036 23.2073 26.7142 25.3179 26.7142 27.9216C26.7142 30.5255 24.6036 32.636 21.9998 32.636ZM65.9998 32.636C63.3961 32.636 61.2855 30.5254 61.2855 27.9216C61.2855 25.3179 63.3961 23.2073 65.9998 23.2073C68.6036 23.2073 70.7142 25.3179 70.7142 27.9216C70.7142 30.5255 68.6036 32.636 65.9998 32.636Z" fill="#2DB59F"/>
<path d="M69.1431 18.3949H62.8574C62.0436 18.3949 61.3843 17.7354 61.3843 16.9218C61.3843 16.108 62.0438 15.4486 62.8574 15.4486H69.1431C69.9569 15.4486 70.6162 16.1081 70.6162 16.9218C70.6162 17.7356 69.9569 18.3949 69.1431 18.3949Z" fill="#74DBC9"/>
<path d="M69.1431 40.3949H62.8574C62.0436 40.3949 61.3843 39.7354 61.3843 38.9218C61.3843 38.1081 62.0438 37.4486 62.8574 37.4486H69.1431C69.9569 37.4486 70.6162 38.1081 70.6162 38.9218C70.6162 39.7354 69.9569 40.3949 69.1431 40.3949Z" fill="#74DBC9"/>
<path d="M25.1431 18.3949H18.8574C18.0436 18.3949 17.3843 17.7354 17.3843 16.9218C17.3843 16.108 18.0438 15.4486 18.8574 15.4486H25.1431C25.9569 15.4486 26.6162 16.1081 26.6162 16.9218C26.6162 17.7356 25.9569 18.3949 25.1431 18.3949Z" fill="#74DBC9"/>
<path d="M25.1431 40.3949H18.8574C18.0436 40.3949 17.3843 39.7354 17.3843 38.9218C17.3843 38.1081 18.0438 37.4486 18.8574 37.4486H25.1431C25.9569 37.4486 26.6162 38.1081 26.6162 38.9218C26.6162 39.7354 25.9569 40.3949 25.1431 40.3949Z" fill="#74DBC9"/>
<path d="M38.448 40C38.2346 40 38.0533 39.9253 37.904 39.776C37.7546 39.6266 37.68 39.4453 37.68 39.232V35.744H35.248C35.0346 35.744 34.8533 35.6693 34.704 35.52C34.5546 35.3706 34.48 35.1893 34.48 34.976V33.984C34.48 33.7493 34.5546 33.568 34.704 33.44C34.8533 33.2906 35.0346 33.216 35.248 33.216H37.68V31.488H35.248C35.0346 31.488 34.8533 31.4133 34.704 31.264C34.5546 31.1146 34.48 30.9333 34.48 30.72V28.928C34.48 28.6933 34.5546 28.512 34.704 28.384C34.8533 28.2346 35.0346 28.16 35.248 28.16H37.68V18.4C37.68 18.1653 37.744 17.9733 37.872 17.824C38.0213 17.6746 38.2133 17.6 38.448 17.6H47.024C49.6053 17.6 51.632 18.208 53.104 19.424C54.576 20.64 55.312 22.4106 55.312 24.736C55.312 26.9546 54.576 28.64 53.104 29.792C51.632 30.9226 49.6053 31.488 47.024 31.488H42.32V33.216H47.504C47.7386 33.216 47.92 33.2906 48.048 33.44C48.1973 33.568 48.272 33.7493 48.272 33.984V34.976C48.272 35.1893 48.1973 35.3706 48.048 35.52C47.92 35.6693 47.7386 35.744 47.504 35.744H42.32V39.232C42.32 39.4453 42.2453 39.6266 42.096 39.776C41.9466 39.9253 41.7546 40 41.52 40H38.448ZM46.864 28.16C48.1013 28.16 49.04 27.872 49.68 27.296C50.3413 26.6986 50.672 25.8346 50.672 24.704C50.672 23.616 50.352 22.7626 49.712 22.144C49.0933 21.504 48.144 21.184 46.864 21.184H42.256V28.16H46.864Z" fill="#AFF0E8"/>
</svg>
