<svg width="88" height="88" viewBox="0 0 88 88" fill="none" xmlns="http://www.w3.org/2000/svg">
<g clip-path="url(#clip0)">
<path d="M74.596 4.44764C72.9536 2.81053 71.0174 1.43433 68.8409 0.35753C67.7774 -0.16858 66.5175 -0.10808 65.5096 0.517889C64.5016 1.14369 63.8885 2.24592 63.8885 3.43254V18.3381L58.7914 21.5146L53.7677 18.3487V3.43065C53.7677 2.24506 53.1554 1.14351 52.1486 0.517373C51.1418 -0.108595 49.8831 -0.170642 48.8197 0.353576C46.5013 1.49637 44.5252 2.87378 42.9462 4.44764C38.7989 8.58175 35.9561 14.0192 35.1469 19.366C34.1724 25.8034 36.0405 31.7457 40.4071 36.0982C42.1785 37.8636 45.3143 39.765 48.45 40.7387V77.5357C48.4498 80.2826 49.5057 82.8628 51.4231 84.8012C53.3546 86.7536 55.9376 87.8288 58.695 87.8286H58.6969C61.4489 87.8286 64.0374 86.7596 65.9851 84.8182C67.9523 82.8575 69.0351 80.2713 69.0346 77.5357C69.0343 75.6413 67.4982 74.1058 65.6038 74.1058H65.6031C63.7084 74.1063 62.1727 75.6427 62.173 77.5373C62.1732 78.4353 61.8066 79.295 61.1413 79.9585C60.4885 80.609 59.6205 80.9672 58.6958 80.9672H58.6951C57.7839 80.9672 56.9336 80.6154 56.3009 79.9757C55.6628 79.3306 55.3114 78.4642 55.3114 77.5361V37.949C55.3114 36.146 53.9156 34.6507 52.1168 34.5264C49.994 34.3798 46.6249 32.6076 45.2509 31.2381C42.471 28.467 41.2918 24.6153 41.9311 20.3926C42.4676 16.8486 44.26 13.2114 46.9059 10.2424V20.2412C46.9059 21.4196 47.5105 22.5155 48.5074 23.1437L56.9518 28.4654C58.0642 29.1667 59.4796 29.1701 60.5957 28.4747L69.1338 23.1535C70.1391 22.5268 70.7501 21.4263 70.7501 20.2417V10.3725C73.8856 13.9571 75.7247 18.4702 75.7247 22.6951C75.7247 25.031 75.129 28.4096 72.2913 31.238C70.8752 32.6492 67.5036 34.4331 65.4407 34.5312C63.6115 34.6184 62.173 36.1269 62.173 37.9583V60.2102C62.173 62.105 63.7091 63.641 65.6038 63.641C67.4984 63.641 69.0346 62.1048 69.0346 60.2102V40.7768C72.1657 39.8207 75.3218 37.9057 77.1353 36.0979C80.7012 32.5435 82.5863 27.9091 82.5863 22.6954C82.5863 16.2561 79.5993 9.43476 74.596 4.44764Z" fill="url(#paint0_linear)"/>
<path d="M26.3837 21.3763C27.22 20.5276 27.5558 19.3055 27.2709 18.1485L23.497 2.82411C23.1194 1.29098 21.7446 0.21367 20.1657 0.21367H12.6178C11.039 0.21367 9.66417 1.29115 9.28656 2.82411L5.5127 18.1485C5.22773 19.3055 5.56357 20.5276 6.39992 21.3763L13.1324 28.2109V44.7157C9.13874 46.1318 6.27084 49.9476 6.27084 54.4201V77.7067C6.27015 80.4562 7.34076 83.0409 9.28536 84.9856C11.2293 86.9296 13.8131 88 16.5607 87.9998C16.5615 87.9996 16.5627 87.9998 16.5636 87.9998C19.3131 87.9998 21.8975 86.9292 23.8415 84.9855C25.7855 83.0414 26.8561 80.4562 26.8558 77.7071V54.4203C26.8558 51.6708 25.785 49.0863 23.8409 47.1422C22.7365 46.0378 21.4249 45.2152 19.9942 44.7109V27.8627L26.3837 21.3763ZM19.994 54.4203V77.7074C19.9942 78.6242 19.6374 79.4858 18.9894 80.1336C18.3416 80.7814 17.4802 81.1382 16.5627 81.1382H16.5617C15.6459 81.1382 14.7848 80.7814 14.1372 80.1336C13.4892 79.4855 13.1324 78.6244 13.1326 77.7078V54.4203C13.1326 52.5288 14.6716 50.9896 16.5632 50.9895C17.4797 50.9895 18.3413 51.3463 18.9893 51.9943C19.6372 52.6426 19.994 53.504 19.994 54.4203ZM16.3919 21.7419L12.634 17.9269L15.3065 7.07492H17.4773L20.1499 17.9269L16.3919 21.7419Z" fill="url(#paint1_linear)"/>
</g>
<defs>
<linearGradient id="paint0_linear" x1="5.41309" y1="-3.78214e-05" x2="88.0846" y2="82.4893" gradientUnits="userSpaceOnUse">
<stop stop-color="#00D5F2"/>
<stop offset="1" stop-color="#0061F2"/>
</linearGradient>
<linearGradient id="paint1_linear" x1="5.41309" y1="-3.78214e-05" x2="88.0846" y2="82.4893" gradientUnits="userSpaceOnUse">
<stop stop-color="#00D5F2"/>
<stop offset="1" stop-color="#0061F2"/>
</linearGradient>
<clipPath id="clip0">
<path d="M0 0H88V88H0V0Z" fill="white"/>
</clipPath>
</defs>
</svg>
