<svg width="88" height="88" viewBox="0 0 88 88" fill="none" xmlns="http://www.w3.org/2000/svg">
<g clip-path="url(#clip0)">
<path d="M77.8359 33.4907C77.8352 33.4847 77.8345 33.4793 77.8338 33.4733L87.2433 21.7475C87.963 20.8512 88.1866 19.6541 87.8395 18.5584C87.4924 17.4627 86.6209 16.6128 85.5172 16.2939L70.0485 11.8224C68.2243 11.2954 66.3189 12.3461 65.7912 14.1703C65.2642 15.9937 66.3156 17.8998 68.139 18.4268L78.6543 21.4662L72.4191 29.2355L59.736 25.5697C57.9125 25.0427 56.0064 26.0934 55.4794 27.9175C54.9524 29.741 56.0031 31.6471 57.8272 32.1741L62.7841 33.6069L44.7084 38.7645C44.4714 38.7745 44.235 38.8108 44.0021 38.8712C43.7711 38.8114 43.5361 38.7745 43.3011 38.7638L25.2724 33.5914L30.1742 32.1741C31.9977 31.6471 33.0491 29.741 32.522 27.9175C31.9943 26.0941 30.0896 25.0433 28.2648 25.5697L15.5817 29.2355L9.34717 21.4662L19.8617 18.4268C21.6859 17.8998 22.7366 15.9937 22.2096 14.1703C21.6825 12.3461 19.7771 11.2947 17.953 11.8224L2.48427 16.2939C1.38051 16.6128 0.508378 17.4627 0.161943 18.5584C-0.185163 19.6541 0.0384083 20.8512 0.758133 21.7475L10.2488 33.5753L0.701737 46.1322C0.0269948 47.0198 -0.175092 48.18 0.159258 49.2434C0.493608 50.3069 1.32277 51.1428 2.38423 51.4845L10.3133 54.0405V68.962C10.3133 75.071 14.4161 80.5085 20.2907 82.1843L37.3191 87.0431C39.5555 87.6809 41.8556 87.9998 44.1558 87.9998C46.4681 87.9998 48.7803 87.6776 51.0281 87.0324L67.9014 82.191C73.8572 80.4823 77.8594 75.2187 77.8594 69.0929C77.8594 67.1943 76.3205 65.6554 74.4219 65.6554C72.5232 65.6554 70.9844 67.1943 70.9844 69.0929C70.9844 72.1202 68.9836 74.7279 66.0054 75.5826L49.1314 80.4246C48.5722 80.585 48.0062 80.716 47.4375 80.8214V51.6282L53.0738 59.4223C53.7325 60.3327 54.7771 60.8456 55.8601 60.8456C56.2092 60.8456 56.5623 60.7919 56.9081 60.6818L85.6112 51.4865C86.6693 51.1468 87.4984 50.317 87.8368 49.2582C88.1752 48.1994 87.9798 47.0426 87.3138 46.153L77.8359 33.4907ZM15.5548 37.9554L37.3903 44.2201L30.6657 53.3758L9.11218 46.4297L15.5548 37.9554ZM22.1767 75.5732C19.2394 74.7353 17.1883 72.0168 17.1883 68.962V56.2561L30.9148 60.6798C31.2619 60.7919 31.617 60.8456 31.9688 60.8456C33.0424 60.8456 34.0797 60.3414 34.7396 59.4431L40.5626 51.5141V80.7609C40.1074 80.6683 39.6548 80.5595 39.205 80.4313L22.1767 75.5732ZM57.184 53.3738L50.5783 44.2389L72.5923 37.9581L78.9195 46.4109L57.184 53.3738ZM29.5485 15.1585C28.2003 13.8218 28.1916 11.6452 29.529 10.2977L36.739 3.02929C38.6773 1.07623 41.2561 0 44.0001 0C46.7447 0 49.3235 1.07623 51.2611 3.02929L58.4718 10.2977C59.8085 11.6452 59.8004 13.8218 58.4523 15.1585C57.7822 15.8239 56.9068 16.1562 56.0313 16.1562C55.1471 16.1562 54.2628 15.8172 53.5915 15.1397L47.4382 8.93681V28.5312C47.4382 30.4292 45.8987 31.968 44.0007 31.968C42.102 31.968 40.5632 30.4292 40.5632 28.5312V8.93681L34.41 15.1397C33.0726 16.4872 30.896 16.4959 29.5485 15.1585Z" fill="url(#paint0_linear)"/>
</g>
<defs>
<linearGradient id="paint0_linear" x1="0.000978162" y1="-3.78214e-05" x2="81.9889" y2="93.2831" gradientUnits="userSpaceOnUse">
<stop stop-color="#00D5F2"/>
<stop offset="1" stop-color="#0061F2"/>
</linearGradient>
<clipPath id="clip0">
<path d="M0 0H88V88H0V0Z" fill="white"/>
</clipPath>
</defs>
</svg>
