<svg width="88" height="88" viewBox="0 0 88 88" fill="none" xmlns="http://www.w3.org/2000/svg">
<g clip-path="url(#clip0)">
<path d="M85.8904 28.1199L44.8238 0.253168C44.3266 -0.0842222 43.674 -0.084394 43.1767 0.253168L2.10995 28.1199C1.70777 28.3927 1.4668 28.8472 1.4668 29.3334V86.5334C1.4668 87.3434 2.12353 88 2.93341 88H85.0668C85.8768 88 86.5334 87.3433 86.5334 86.5334V29.3334C86.5336 28.8472 86.2928 28.3927 85.8904 28.1199Z" fill="#F07B52"/>
<path d="M5.86697 86.5334V29.3334C5.86697 28.8471 6.10794 28.3927 6.51012 28.1198L46.2002 1.18713L44.8236 0.252985C44.3264 -0.0844053 43.6738 -0.0845771 43.1766 0.252985L2.10995 28.1198C1.70777 28.3927 1.4668 28.8473 1.4668 29.3334V86.5334C1.4668 87.3434 2.12353 88 2.93341 88H7.33341C6.52353 88 5.86697 87.3436 5.86697 86.5334Z" fill="#E5563C"/>
<path d="M70.3994 35.2H17.5994C16.7894 35.2 16.1328 35.8567 16.1328 36.6666V86.5332C16.1328 87.3433 16.7895 87.9998 17.5994 87.9998H70.3994C71.2095 87.9998 71.866 87.3431 71.866 86.5332V36.6668C71.8662 35.8567 71.2095 35.2 70.3994 35.2Z" fill="#74757B"/>
<path d="M17.5994 35.2C16.7894 35.2 16.1328 35.8567 16.1328 36.6666V86.5332C16.1328 87.3433 16.7895 87.9998 17.5994 87.9998H20.5328V35.2H17.5994Z" fill="#606268"/>
<path d="M73.3334 29.3334H14.6668C13.8568 29.3334 13.2002 29.9901 13.2002 30.8V36.6666C13.2002 37.4767 13.8569 38.1332 14.6668 38.1332H73.3334C74.1435 38.1332 74.8 37.4765 74.8 36.6666V30.8C74.8 29.9901 74.1433 29.3334 73.3334 29.3334Z" fill="#C3C4C6"/>
<path d="M73.3334 35.2H14.6668C13.8568 35.2 13.2002 34.5433 13.2002 33.7334V36.6668C13.2002 37.4768 13.8569 38.1334 14.6668 38.1334H73.3334C74.1435 38.1334 74.8 37.4767 74.8 36.6668V33.7334C74.8 34.5436 74.1433 35.2 73.3334 35.2Z" fill="#AFB0B4"/>
<path d="M49.867 13.2H38.1336C37.3236 13.2 36.667 12.5433 36.667 11.7334C36.667 10.9233 37.3237 10.2668 38.1336 10.2668H49.867C50.677 10.2668 51.3336 10.9235 51.3336 11.7334C51.3336 12.5434 50.6769 13.2 49.867 13.2Z" fill="#E5563C"/>
<path d="M49.867 19.0668H38.1336C37.3236 19.0668 36.667 18.4101 36.667 17.6002C36.667 16.7903 37.3237 16.1336 38.1336 16.1336H49.867C50.677 16.1336 51.3336 16.7903 51.3336 17.6002C51.3336 18.4101 50.6769 19.0668 49.867 19.0668Z" fill="#E5563C"/>
<path d="M49.867 24.9334H38.1336C37.3236 24.9334 36.667 24.2767 36.667 23.4668C36.667 22.6567 37.3237 22.0002 38.1336 22.0002H49.867C50.677 22.0002 51.3336 22.6569 51.3336 23.4668C51.3336 24.2767 50.6769 24.9334 49.867 24.9334Z" fill="#E5563C"/>
<path d="M35.1994 46.9334H17.5994C16.7894 46.9334 16.1328 47.5901 16.1328 48.4V66C16.1328 66.81 16.7895 67.4666 17.5994 67.4666L26.3994 68.9332L35.1994 67.4666C36.0095 67.4666 36.666 66.8099 36.666 66V48.4C36.6662 47.5901 36.0096 46.9334 35.1994 46.9334Z" fill="#FDDD85"/>
<path d="M35.1994 67.4668H17.5994C16.7894 67.4668 16.1328 68.1235 16.1328 68.9334V86.5334C16.1328 87.3434 16.7895 88 17.5994 88H35.1994C36.0095 88 36.666 87.3433 36.666 86.5334V68.9334C36.6662 68.1235 36.0096 67.4668 35.1994 67.4668Z" fill="#FDDD85"/>
<path d="M19.0662 86.5334V68.9334C19.0662 68.1234 19.7229 67.4668 20.5328 67.4668H17.5994C16.7894 67.4668 16.1328 68.1235 16.1328 68.9334V86.5334C16.1328 87.3435 16.7895 88 17.5994 88H20.5328C19.7228 88 19.0662 87.3436 19.0662 86.5334Z" fill="#FDD042"/>
<path d="M29.3334 67.4668H23.4668V74.8C23.4668 75.6101 24.1235 76.2666 24.9334 76.2666H27.8668C28.6768 76.2666 29.3334 75.6099 29.3334 74.8V67.4668Z" fill="#F2C127"/>
<path d="M29.3332 85.0668H23.4666C22.6566 85.0668 22 84.4101 22 83.6002C22 82.7903 22.6567 82.1336 23.4666 82.1336H29.3332C30.1433 82.1336 30.7998 82.7903 30.7998 83.6002C30.7998 84.4101 30.1433 85.0668 29.3332 85.0668Z" fill="#74757B"/>
<path d="M19.0662 66V48.4C19.0662 47.5899 19.7229 46.9334 20.5328 46.9334H17.5994C16.7894 46.9334 16.1328 47.5901 16.1328 48.4V66C16.1328 66.81 16.7895 67.4666 17.5994 67.4666H20.5328C19.7228 67.4668 19.0662 66.8102 19.0662 66Z" fill="#FDD042"/>
<path d="M29.3334 46.9334H23.4668V54.2668C23.4668 55.0768 24.1235 55.7334 24.9334 55.7334H27.8668C28.6768 55.7334 29.3334 55.0767 29.3334 54.2668V46.9334Z" fill="#F2C127"/>
<path d="M29.3332 64.5334H23.4666C22.6566 64.5334 22 63.8766 22 63.0668C22 62.2569 22.6567 61.6002 23.4666 61.6002H29.3332C30.1433 61.6002 30.7998 62.2569 30.7998 63.0668C30.7998 63.8766 30.1433 64.5334 29.3332 64.5334Z" fill="#74757B"/>
<path d="M55.7336 67.4668H38.1336C37.3236 67.4668 36.667 68.1235 36.667 68.9334V86.5334C36.667 87.3435 37.3237 88 38.1336 88H55.7336C56.5436 88 57.2002 87.3433 57.2002 86.5334V68.9334C57.2002 68.1235 56.5436 67.4668 55.7336 67.4668Z" fill="#FDDD85"/>
<path d="M39.6004 86.5334V68.9334C39.6004 68.1234 40.2571 67.4668 41.067 67.4668H38.1336C37.3236 67.4668 36.667 68.1235 36.667 68.9334V86.5334C36.667 87.3435 37.3237 88 38.1336 88H41.067C40.2571 88 39.6004 87.3436 39.6004 86.5334Z" fill="#FDD042"/>
<path d="M49.8668 67.4668H44V74.8C44 75.6101 44.6567 76.2666 45.4666 76.2666H48.4C49.21 76.2666 49.8666 75.6099 49.8666 74.8V67.4668H49.8668Z" fill="#F2C127"/>
<path d="M49.8666 85.0668H43.9998C43.1898 85.0668 42.5332 84.4101 42.5332 83.6002C42.5332 82.7903 43.1899 82.1336 43.9998 82.1336H49.8664C50.6765 82.1336 51.333 82.7903 51.333 83.6002C51.333 84.4101 50.6765 85.0668 49.8666 85.0668Z" fill="#74757B"/>
</g>
<defs>
<clipPath id="clip0">
<path d="M0 0H88V88H0V0Z" fill="white"/>
</clipPath>
</defs>
</svg>
