<svg width="120" height="120" viewBox="0 0 120 120" fill="none" xmlns="http://www.w3.org/2000/svg">
<g clip-path="url(#clip0)">
<path d="M58.4679 0.2091C62.8423 -0.561526 63.3076 0.648835 69.1735 6.40023C81.8183 18.7999 75.048 15.2733 92.1977 15.8306C97.0417 15.9873 104.082 14.8597 104.234 22.0827C104.782 47.9183 100.742 37.4778 115.278 52.9861C116.505 54.2923 123.227 59.3427 118.096 64.5803C105.169 77.7811 103.869 78.0467 104.125 79.5357C104.103 85.6267 104.112 91.7177 104.073 97.8087C104.051 100.974 101.625 104.183 98.3027 104.248C74.6784 104.709 79.7485 102.816 75.2654 107.021C57.3983 123.784 62.9336 125.669 41.9618 104.627C41.2878 103.739 40.7617 104.152 23.0511 104.03C15.472 103.978 15.6024 99.3021 15.7416 92.1923C16.0329 77.2978 16.1199 78.4864 13.8675 76.118C-5.09982 56.1688 -4.75196 62.8867 15.8024 41.4528C16.2808 34.8263 15.3111 22.1045 16.7852 18.8696C18.9984 14.0151 24.1468 15.6913 40.4616 15.4736C43.4663 15.4344 41.5313 15.5258 50.4236 7.25794C53.0282 4.83721 55.2241 1.82437 58.4679 0.2091ZM56.2808 8.77306C46.8623 16.9016 45.5144 20.8897 42.201 20.6633C21.9422 20.7548 20.9508 19.9058 21.1769 22.1219C20.9813 41.9971 21.5944 42.611 20.0899 44.3873C16.3199 48.8413 7.24065 56.2907 5.42306 59.543C5.9579 61.3324 18.0549 73.1312 18.0983 73.1748C21.4074 76.3835 21.0334 74.5636 20.7639 96.5679C20.7204 100.06 21.0987 98.4922 41.7357 98.9363C44.3838 98.9929 45.21 100.578 53.3935 108.841C61.6074 117.135 58.5375 115.542 66.1644 108.82C77.3004 99.0016 73.2956 99.0452 81.7618 99.0539C94.9241 99.0713 99.1289 100.29 98.8767 97.4386C99.0593 75.0295 97.8505 77.4285 102.003 73.2836C116.2 59.1076 115.735 60.8926 113.243 58.054C109.021 53.8699 104.951 49.5205 100.633 45.4366C98.0027 42.9462 99.442 40.0422 99.2506 22.5268C99.2289 20.5501 98.4288 20.9986 78.6832 20.9986C75.7872 21.1815 74.6393 19.2396 62.9076 7.4495C59.4854 4.00998 60.3942 5.22035 56.2808 8.77306Z" fill="#212945"/>
<path d="M38.2824 32.5579C48.1748 26.7369 60.837 35.893 58.6325 47.3522C56.9888 55.89 47.1138 61.4238 38.852 57.2049C28.5422 51.9411 28.8423 37.4647 38.2824 32.5579ZM42.3916 36.3414C33.2862 39.1627 34.8907 52.5245 43.9526 53.3779C56.0539 55.2936 58.002 33.5637 42.3916 36.3414Z" fill="#0061F2"/>
<path d="M79.3087 37.9261C82.3221 37.2644 83.857 40.1597 81.5872 42.3758C43.157 79.8665 43.4439 82.0521 40.9002 81.6516C39.2304 81.8127 38.1782 79.7533 38.6826 78.334C39.7522 76.3878 78.0999 38.4965 79.3087 37.9261Z" fill="#0061F2"/>
<path d="M72.7816 61.4542C84.1046 59.6343 91.8837 71.3374 87.7528 80.7721C84.1915 88.9094 73.9383 91.4259 67.2506 86.6497C56.4668 78.9522 61.1456 63.3263 72.7816 61.4542ZM72.8077 66.7354C65.7069 68.4638 64.1024 78.1859 69.9117 82.2437C76.7516 87.0242 86.0917 80.4586 83.3088 72.465C82.0739 68.1808 77.0908 65.3639 72.8077 66.7354Z" fill="#0061F2"/>
</g>
<defs>
<clipPath id="clip0">
<path d="M0 0H120V120H0V0Z" fill="white"/>
</clipPath>
</defs>
</svg>
