<svg width="48" height="48" viewBox="0 0 48 48" fill="none" xmlns="http://www.w3.org/2000/svg">
<path d="M30 12H18C14.8174 12 11.7652 13.2643 9.51472 15.5147C7.26428 17.7652 6 20.8174 6 24C6 27.824 7.794 31.222 10.58 33.42" stroke="#A3A7B7" stroke-width="3" stroke-linecap="round" stroke-linejoin="round"/>
<path d="M18 36.0001H30C33.1826 36.0001 36.2348 34.7358 38.4853 32.4854C40.7357 30.2349 42 27.1827 42 24.0001C42.0005 22.1855 41.5885 20.3945 40.7951 18.7625C40.0016 17.1306 38.8475 15.7004 37.42 14.5801" stroke="#A3A7B7" stroke-width="3" stroke-linecap="round" stroke-linejoin="round"/>
<path d="M23 31L18 36L23 41" stroke="#A3A7B7" stroke-width="3" stroke-linecap="round" stroke-linejoin="round"/>
<path d="M25 17L30 12L25 7" stroke="#A3A7B7" stroke-width="3" stroke-linecap="round" stroke-linejoin="round"/>
</svg>
