<svg width="123" height="129" viewBox="0 0 123 129" fill="none" xmlns="http://www.w3.org/2000/svg">
<path d="M118.641 19.0224L118.623 19.0492L118.613 19.0798C118.38 19.8151 118.366 20.4027 118.363 20.8538L118.363 20.9216C118.362 21.1185 118.361 21.2743 118.345 21.4099C118.327 21.5559 118.293 21.6539 118.236 21.7295C118.121 21.8834 117.849 22.0289 117.096 22.1177C116.359 22.2045 115.233 22.2312 113.509 22.2218C112.059 22.2139 110.195 22.1807 107.798 22.138C98.8017 21.9778 82.3 21.6839 52.0453 22.0931C17.383 22.558 -8.86788 58.8947 4.17062 93.7045C14.4886 121.247 41.6101 131.912 65.3363 126.804C77.2012 124.249 88.2252 117.749 95.8813 107.438C103.503 97.1731 107.776 83.1457 106.235 65.5051C108.613 65.498 110.993 65.4972 113.373 65.4965C114.95 65.496 116.527 65.4955 118.105 65.4931C118.185 66.0566 118.272 66.6247 118.359 67.1912C118.437 67.696 118.514 68.1995 118.585 68.697L118.603 68.8217L118.718 68.8743C119.821 69.381 120.95 69.3196 122.059 68.9902L122.197 68.9491L122.221 68.807C122.28 68.4601 122.331 67.4887 122.377 66.072C122.423 64.6458 122.464 62.7475 122.499 60.5299C122.569 56.0944 122.614 50.3778 122.628 44.5969C122.642 38.816 122.624 32.9697 122.567 28.2749C122.51 23.5882 122.414 20.0307 122.268 18.8415L122.25 18.6955L122.111 18.6497C122.05 18.6298 121.987 18.6089 121.923 18.5874C121.446 18.4285 120.882 18.2406 120.345 18.2092C120.034 18.1911 119.719 18.2236 119.423 18.3497C119.124 18.4769 118.858 18.6937 118.641 19.0224ZM25.4763 35.4323L25.342 35.244L25.4763 35.4323C29.6448 32.458 33.3798 30.4097 37.6725 29.0057C41.9673 27.6011 46.8312 26.8377 53.2618 26.446C61.3808 25.9514 71.9706 26.0501 87.0305 26.1904C95.7931 26.272 106.069 26.3678 118.252 26.369C118.309 37.9812 118.29 49.5937 118.264 61.2068C114.602 61.2531 110.937 61.2439 107.27 61.2346L106.709 61.2332C102.787 61.2234 98.8625 61.2169 94.9393 61.2818C94.3608 61.1877 93.8804 61.3611 93.53 61.6915C93.1819 62.0197 92.9739 62.4903 92.9026 62.9749C92.7624 63.9273 93.1459 65.0784 94.2578 65.368L94.2748 65.3725L94.2923 65.3743C95.5624 65.506 96.8348 65.5222 98.099 65.5132C98.4611 65.5106 98.822 65.506 99.182 65.5014C100.021 65.4907 100.855 65.48 101.689 65.4954C106.566 89.7988 92.2929 113.459 69.7231 121.225C16.9926 139.367 -20.2749 68.0742 25.4763 35.4323Z" fill="#212945" stroke="#212945" stroke-width="0.462627"/>
<path fill-rule="evenodd" clip-rule="evenodd" d="M72.3374 70.1211C69.7256 60.321 59.5243 53.8975 49.1361 56.5063C39.4463 58.9378 32.8308 68.733 35.1278 79.3256C37.2772 89.234 47.2768 95.9873 57.6798 93.8855C68.0188 91.7985 75.2885 81.201 72.3374 70.1211ZM68.5398 71.1048C66.4816 63.3855 58.4427 58.3259 50.2565 60.3808C42.6207 62.296 37.4074 70.0114 39.2175 78.3549C40.9114 86.1594 48.7913 91.4788 56.9892 89.8233C65.1366 88.1794 70.8654 79.832 68.5398 71.1048Z" fill="#E7EDF5"/>
<path d="M22 53.2374L57.4828 0L50.2414 39.5683H85L43 100L50.2414 53.2374H22Z" fill="#0061F2"/>
</svg>
